<svg xmlns="http://www.w3.org/2000/svg" xmlns:xlink="http://www.w3.org/1999/xlink" contentStyleType="text/css" height="522px" preserveAspectRatio="none" style="width:468px;height:522px;background:#FFFFFF;" version="1.1" viewBox="0 0 468 522" width="468px" zoomAndPan="magnify"><defs/><g><!--class Poll--><g id="elem_Poll"><rect codeLine="1" fill="#F1F1F1" height="129.4844" id="Poll" rx="2.5" ry="2.5" style="stroke:#181818;stroke-width:0.5;" width="154.7891" x="228.5" y="7"/><ellipse cx="289.251" cy="23" fill="#ADD1B2" rx="11" ry="11" style="stroke:#181818;stroke-width:1.0;"/><path d="M292.2197,28.6406 Q291.6416,28.9375 291.001,29.0781 Q290.3604,29.2344 289.6572,29.2344 Q287.1572,29.2344 285.8291,27.5938 Q284.5166,25.9375 284.5166,22.8125 Q284.5166,19.6875 285.8291,18.0313 Q287.1572,16.375 289.6572,16.375 Q290.3604,16.375 291.001,16.5313 Q291.6572,16.6875 292.2197,16.9844 L292.2197,19.7031 Q291.5947,19.125 291.001,18.8594 Q290.4072,18.5781 289.7822,18.5781 Q288.4385,18.5781 287.751,19.6563 Q287.0635,20.7188 287.0635,22.8125 Q287.0635,24.9063 287.751,25.9844 Q288.4385,27.0469 289.7822,27.0469 Q290.4072,27.0469 291.001,26.7813 Q291.5947,26.5 292.2197,25.9219 L292.2197,28.6406 Z " fill="#000000"/><text fill="#000000" font-family="sans-serif" font-size="14" lengthAdjust="spacing" textLength="24.7871" x="309.751" y="27.8467">Poll</text><line style="stroke:#181818;stroke-width:0.5;" x1="229.5" x2="382.2891" y1="39" y2="39"/><ellipse cx="239.5" cy="52.6484" fill="none" rx="3" ry="3" style="stroke:#038048;stroke-width:1.0;"/><text fill="#000000" font-family="sans-serif" font-size="14" lengthAdjust="spacing" textLength="48.6309" x="248.5" y="55.9951">id: u64</text><ellipse cx="239.5" cy="68.9453" fill="none" rx="3" ry="3" style="stroke:#038048;stroke-width:1.0;"/><text fill="#000000" font-family="sans-serif" font-size="14" lengthAdjust="spacing" textLength="128.7891" x="248.5" y="72.292">description: String</text><ellipse cx="239.5" cy="85.2422" fill="none" rx="3" ry="3" style="stroke:#038048;stroke-width:1.0;"/><text fill="#000000" font-family="sans-serif" font-size="14" lengthAdjust="spacing" textLength="68.4619" x="248.5" y="88.5889">start: u64</text><ellipse cx="239.5" cy="101.5391" fill="none" rx="3" ry="3" style="stroke:#038048;stroke-width:1.0;"/><text fill="#000000" font-family="sans-serif" font-size="14" lengthAdjust="spacing" textLength="62.2275" x="248.5" y="104.8857">end: u64</text><ellipse cx="239.5" cy="117.8359" fill="none" rx="3" ry="3" style="stroke:#038048;stroke-width:1.0;"/><text fill="#000000" font-family="sans-serif" font-size="14" lengthAdjust="spacing" textLength="112.6426" x="248.5" y="121.1826">candidates: u64</text><line style="stroke:#181818;stroke-width:0.5;" x1="229.5" x2="382.2891" y1="128.4844" y2="128.4844"/></g><!--class Candidate--><g id="elem_Candidate"><rect codeLine="9" fill="#F1F1F1" height="129.4844" id="Candidate" rx="2.5" ry="2.5" style="stroke:#181818;stroke-width:0.5;" width="168.6182" x="51.5" y="213"/><ellipse cx="95.7729" cy="229" fill="#ADD1B2" rx="11" ry="11" style="stroke:#181818;stroke-width:1.0;"/><path d="M98.7417,234.6406 Q98.1636,234.9375 97.5229,235.0781 Q96.8823,235.2344 96.1792,235.2344 Q93.6792,235.2344 92.3511,233.5938 Q91.0386,231.9375 91.0386,228.8125 Q91.0386,225.6875 92.3511,224.0313 Q93.6792,222.375 96.1792,222.375 Q96.8823,222.375 97.5229,222.5313 Q98.1792,222.6875 98.7417,222.9844 L98.7417,225.7031 Q98.1167,225.125 97.5229,224.8594 Q96.9292,224.5781 96.3042,224.5781 Q94.9604,224.5781 94.2729,225.6563 Q93.5854,226.7188 93.5854,228.8125 Q93.5854,230.9063 94.2729,231.9844 Q94.9604,233.0469 96.3042,233.0469 Q96.9292,233.0469 97.5229,232.7813 Q98.1167,232.5 98.7417,231.9219 L98.7417,234.6406 Z " fill="#000000"/><text fill="#000000" font-family="sans-serif" font-size="14" lengthAdjust="spacing" textLength="71.5723" x="116.2729" y="233.8467">Candidate</text><line style="stroke:#181818;stroke-width:0.5;" x1="52.5" x2="219.1182" y1="245" y2="245"/><ellipse cx="62.5" cy="258.6484" fill="none" rx="3" ry="3" style="stroke:#038048;stroke-width:1.0;"/><text fill="#000000" font-family="sans-serif" font-size="14" lengthAdjust="spacing" textLength="56.3281" x="71.5" y="261.9951">cid: u64</text><ellipse cx="62.5" cy="274.9453" fill="none" rx="3" ry="3" style="stroke:#038048;stroke-width:1.0;"/><text fill="#000000" font-family="sans-serif" font-size="14" lengthAdjust="spacing" textLength="80.8623" x="71.5" y="278.292">poll_id: u64</text><ellipse cx="62.5" cy="291.2422" fill="none" rx="3" ry="3" style="stroke:#038048;stroke-width:1.0;"/><text fill="#000000" font-family="sans-serif" font-size="14" lengthAdjust="spacing" textLength="90.6514" x="71.5" y="294.5889">name: String</text><ellipse cx="62.5" cy="307.5391" fill="none" rx="3" ry="3" style="stroke:#038048;stroke-width:1.0;"/><text fill="#000000" font-family="sans-serif" font-size="14" lengthAdjust="spacing" textLength="74.1016" x="71.5" y="310.8857">votes: u64</text><ellipse cx="62.5" cy="323.8359" fill="none" rx="3" ry="3" style="stroke:#038048;stroke-width:1.0;"/><text fill="#000000" font-family="sans-serif" font-size="14" lengthAdjust="spacing" textLength="142.6182" x="71.5" y="327.1826">has_registered: bool</text><line style="stroke:#181818;stroke-width:0.5;" x1="52.5" x2="219.1182" y1="334.4844" y2="334.4844"/></g><!--class Voter--><g id="elem_Voter"><rect codeLine="17" fill="#F1F1F1" height="96.8906" id="Voter" rx="2.5" ry="2.5" style="stroke:#181818;stroke-width:0.5;" width="136.6602" x="192.5" y="419"/><ellipse cx="237.5796" cy="435" fill="#ADD1B2" rx="11" ry="11" style="stroke:#181818;stroke-width:1.0;"/><path d="M240.5483,440.6406 Q239.9702,440.9375 239.3296,441.0781 Q238.689,441.2344 237.9858,441.2344 Q235.4858,441.2344 234.1577,439.5938 Q232.8452,437.9375 232.8452,434.8125 Q232.8452,431.6875 234.1577,430.0313 Q235.4858,428.375 237.9858,428.375 Q238.689,428.375 239.3296,428.5313 Q239.9858,428.6875 240.5483,428.9844 L240.5483,431.7031 Q239.9233,431.125 239.3296,430.8594 Q238.7358,430.5781 238.1108,430.5781 Q236.7671,430.5781 236.0796,431.6563 Q235.3921,432.7188 235.3921,434.8125 Q235.3921,436.9063 236.0796,437.9844 Q236.7671,439.0469 238.1108,439.0469 Q238.7358,439.0469 239.3296,438.7813 Q239.9233,438.5 240.5483,437.9219 L240.5483,440.6406 Z " fill="#000000"/><text fill="#000000" font-family="sans-serif" font-size="14" lengthAdjust="spacing" textLength="38.001" x="258.0796" y="439.8467">Voter</text><line style="stroke:#181818;stroke-width:0.5;" x1="193.5" x2="328.1602" y1="451" y2="451"/><ellipse cx="203.5" cy="464.6484" fill="none" rx="3" ry="3" style="stroke:#038048;stroke-width:1.0;"/><text fill="#000000" font-family="sans-serif" font-size="14" lengthAdjust="spacing" textLength="56.3281" x="212.5" y="467.9951">cid: u64</text><ellipse cx="203.5" cy="480.9453" fill="none" rx="3" ry="3" style="stroke:#038048;stroke-width:1.0;"/><text fill="#000000" font-family="sans-serif" font-size="14" lengthAdjust="spacing" textLength="80.8623" x="212.5" y="484.292">poll_id: u64</text><ellipse cx="203.5" cy="497.2422" fill="none" rx="3" ry="3" style="stroke:#038048;stroke-width:1.0;"/><text fill="#000000" font-family="sans-serif" font-size="14" lengthAdjust="spacing" textLength="110.6602" x="212.5" y="500.5889">has_voted: bool</text><line style="stroke:#181818;stroke-width:0.5;" x1="193.5" x2="328.1602" y1="507.8906" y2="507.8906"/></g><!--class Counter--><g id="elem_Counter"><rect codeLine="23" fill="#F1F1F1" height="64.2969" id="Counter" rx="2.5" ry="2.5" style="stroke:#181818;stroke-width:0.5;" width="101.3525" x="255.5" y="245.5"/><ellipse cx="276.5333" cy="261.5" fill="#ADD1B2" rx="11" ry="11" style="stroke:#181818;stroke-width:1.0;"/><path d="M279.502,267.1406 Q278.9239,267.4375 278.2833,267.5781 Q277.6426,267.7344 276.9395,267.7344 Q274.4395,267.7344 273.1114,266.0938 Q271.7989,264.4375 271.7989,261.3125 Q271.7989,258.1875 273.1114,256.5313 Q274.4395,254.875 276.9395,254.875 Q277.6426,254.875 278.2833,255.0313 Q278.9395,255.1875 279.502,255.4844 L279.502,258.2031 Q278.877,257.625 278.2833,257.3594 Q277.6895,257.0781 277.0645,257.0781 Q275.7208,257.0781 275.0333,258.1563 Q274.3458,259.2188 274.3458,261.3125 Q274.3458,263.4063 275.0333,264.4844 Q275.7208,265.5469 277.0645,265.5469 Q277.6895,265.5469 278.2833,265.2813 Q278.877,265 279.502,264.4219 L279.502,267.1406 Z " fill="#000000"/><text fill="#000000" font-family="sans-serif" font-size="14" lengthAdjust="spacing" textLength="55.9453" x="291.874" y="266.3467">Counter</text><line style="stroke:#181818;stroke-width:0.5;" x1="256.5" x2="355.8525" y1="277.5" y2="277.5"/><ellipse cx="266.5" cy="291.1484" fill="none" rx="3" ry="3" style="stroke:#038048;stroke-width:1.0;"/><text fill="#000000" font-family="sans-serif" font-size="14" lengthAdjust="spacing" textLength="75.3525" x="275.5" y="294.4951">count: u64</text><line style="stroke:#181818;stroke-width:0.5;" x1="256.5" x2="355.8525" y1="301.7969" y2="301.7969"/></g><!--class Registrations--><g id="elem_Registrations"><rect codeLine="27" fill="#F1F1F1" height="64.2969" id="Registrations" rx="2.5" ry="2.5" style="stroke:#181818;stroke-width:0.5;" width="124.3467" x="7" y="435.5"/><ellipse cx="22" cy="451.5" fill="#ADD1B2" rx="11" ry="11" style="stroke:#181818;stroke-width:1.0;"/><path d="M24.9688,457.1406 Q24.3906,457.4375 23.75,457.5781 Q23.1094,457.7344 22.4063,457.7344 Q19.9063,457.7344 18.5781,456.0938 Q17.2656,454.4375 17.2656,451.3125 Q17.2656,448.1875 18.5781,446.5313 Q19.9063,444.875 22.4063,444.875 Q23.1094,444.875 23.75,445.0313 Q24.4063,445.1875 24.9688,445.4844 L24.9688,448.2031 Q24.3438,447.625 23.75,447.3594 Q23.1563,447.0781 22.5313,447.0781 Q21.1875,447.0781 20.5,448.1563 Q19.8125,449.2188 19.8125,451.3125 Q19.8125,453.4063 20.5,454.4844 Q21.1875,455.5469 22.5313,455.5469 Q23.1563,455.5469 23.75,455.2813 Q24.3438,455 24.9688,454.4219 L24.9688,457.1406 Z " fill="#000000"/><text fill="#000000" font-family="sans-serif" font-size="14" lengthAdjust="spacing" textLength="92.3467" x="36" y="456.3467">Registrations</text><line style="stroke:#181818;stroke-width:0.5;" x1="8" x2="130.3467" y1="467.5" y2="467.5"/><ellipse cx="18" cy="481.1484" fill="none" rx="3" ry="3" style="stroke:#038048;stroke-width:1.0;"/><text fill="#000000" font-family="sans-serif" font-size="14" lengthAdjust="spacing" textLength="75.3525" x="27" y="484.4951">count: u64</text><line style="stroke:#181818;stroke-width:0.5;" x1="8" x2="130.3467" y1="491.7969" y2="491.7969"/></g><!--link Poll to Candidate--><g id="link_Poll_Candidate"><path codeLine="31" d="M252.91,136.21 C232.55,160.64 213.1711,183.8907 192.8211,208.3107 " fill="none" id="Poll-to-Candidate" style="stroke:#181818;stroke-width:1.0;"/><polygon fill="#181818" points="188.98,212.92,197.8145,208.5667,192.1809,209.0789,191.6688,203.4453,188.98,212.92" style="stroke:#181818;stroke-width:1.0;"/><text fill="#000000" font-family="sans-serif" font-size="13" lengthAdjust="spacing" textLength="22.9785" x="228" y="179.0669">has</text><text fill="#000000" font-family="sans-serif" font-size="13" lengthAdjust="spacing" textLength="8.271" x="238.3368" y="156.6059">1</text><text fill="#000000" font-family="sans-serif" font-size="13" lengthAdjust="spacing" textLength="6.5" x="188.4948" y="202.0839">*</text></g><!--link Candidate to Voter--><g id="link_Candidate_Voter"><path codeLine="32" d="M199.96,342.25 C207.93,351.81 215.54,361.86 222,372 C231.16,386.37 236.7191,397.6722 242.8591,413.1622 " fill="none" id="Candidate-to-Voter" style="stroke:#181818;stroke-width:1.0;"/><polygon fill="#181818" points="245.07,418.74,245.4721,408.8994,243.2275,414.0918,238.0351,411.8473,245.07,418.74" style="stroke:#181818;stroke-width:1.0;"/><text fill="#000000" font-family="sans-serif" font-size="13" lengthAdjust="spacing" textLength="128.8828" x="233" y="385.0669">receives votes from</text><text fill="#000000" font-family="sans-serif" font-size="13" lengthAdjust="spacing" textLength="8.271" x="198.9306" y="362.6505">1</text><text fill="#000000" font-family="sans-serif" font-size="13" lengthAdjust="spacing" textLength="6.5" x="236.467" y="407.9124">*</text></g><!--link Voter to Candidate--><g id="link_Voter_Candidate"><path codeLine="36" d="M192.33,436.22 C173.16,424.32 154.45,408.71 143,389 C134.89,375.04 131.7445,364.3263 130.6545,348.1963 " fill="none" id="Voter-to-Candidate" style="stroke:#181818;stroke-width:1.0;"/><polygon fill="#181818" points="130.25,342.21,126.8659,351.4592,130.5871,347.1986,134.8477,350.9198,130.25,342.21" style="stroke:#181818;stroke-width:1.0;"/><text fill="#000000" font-family="sans-serif" font-size="13" lengthAdjust="spacing" textLength="69.418" x="144" y="385.0669">references</text><text fill="#000000" font-family="sans-serif" font-size="13" lengthAdjust="spacing" textLength="8.271" x="176.4151" y="429.0586">1</text><text fill="#000000" font-family="sans-serif" font-size="13" lengthAdjust="spacing" textLength="8.271" x="121.1604" y="362.6059">1</text></g><!--link Poll to Counter--><g id="link_Poll_Counter"><path codeLine="33" d="M306,136.21 C306,172.57 306,210.52 306,239.42 " fill="none" id="Poll-to-Counter" style="stroke:#181818;stroke-width:1.0;"/><polygon fill="#181818" points="306,245.42,310,236.42,306,240.42,302,236.42,306,245.42" style="stroke:#181818;stroke-width:1.0;"/><text fill="#000000" font-family="sans-serif" font-size="13" lengthAdjust="spacing" textLength="39.8569" x="307" y="179.0669">tracks</text><text fill="#000000" font-family="sans-serif" font-size="13" lengthAdjust="spacing" textLength="8.271" x="297.5654" y="156.6059">1</text><text fill="#000000" font-family="sans-serif" font-size="13" lengthAdjust="spacing" textLength="8.271" x="297.1666" y="234.3066">1</text></g><!--link Candidate to Registrations--><g id="link_Candidate_Registrations"><path codeLine="34" d="M80.33,342.13 C74.48,351.63 69.43,361.71 66,372 C59.26,392.25 59.3478,410.3525 61.8478,429.1225 " fill="none" id="Candidate-to-Registrations" style="stroke:#181818;stroke-width:1.0;"/><polygon fill="#181818" points="62.64,435.07,65.4168,425.6207,61.9799,430.1138,57.4868,426.6769,62.64,435.07" style="stroke:#181818;stroke-width:1.0;"/><text fill="#000000" font-family="sans-serif" font-size="13" lengthAdjust="spacing" textLength="39.8569" x="67" y="385.0669">tracks</text><text fill="#000000" font-family="sans-serif" font-size="13" lengthAdjust="spacing" textLength="8.271" x="65.4684" y="362.5166">1</text><text fill="#000000" font-family="sans-serif" font-size="13" lengthAdjust="spacing" textLength="8.271" x="52.6579" y="424.5096">1</text></g><!--link Voter to Poll--><g id="link_Voter_Poll"><path codeLine="35" d="M329.68,431.29 C345.45,419.94 360.39,405.84 370,389 C415.31,309.65 379.6747,208.3858 345.8447,141.3958 " fill="none" id="Voter-to-Poll" style="stroke:#181818;stroke-width:1.0;"/><polygon fill="#181818" points="343.14,136.04,343.6265,145.8768,345.3939,140.5032,350.7676,142.2706,343.14,136.04" style="stroke:#181818;stroke-width:1.0;"/><text fill="#000000" font-family="sans-serif" font-size="13" lengthAdjust="spacing" textLength="69.418" x="391" y="282.0669">references</text><text fill="#000000" font-family="sans-serif" font-size="13" lengthAdjust="spacing" textLength="8.271" x="337.2066" y="423.8618">1</text><text fill="#000000" font-family="sans-serif" font-size="13" lengthAdjust="spacing" textLength="8.271" x="338.9997" y="156.4162">1</text></g><!--SRC=[bP2n3i8W48RtFiMbeyR1n3WmkFW2HXDNW_HKOeNc3bsCxouKRQ7g80kvu-V__ZjLIsPOsRg6Um7-Z45N0gxpsQkga1Nfncbh16mSQNDylR2Jv58fckodagRIbNJ8iVie2jNIbk-73gboPkFZxFAMaHSSy6-siuwDa-GTuL6pGqB_UszjtLEtNav_48DRG7mOBUtLP5QX7eouRcEG36lZ7yfswUMqXCba0UMeJFOY0htewrGLvn10g53VaECUu43sCh3qzpkh01z6dRzw-ZkFsuaZAXMsWC0- -1KRXTyqwHYzy0a0]--></g></svg>